<svg width="24" height="24" viewBox="0 0 24 24" fill="none" xmlns="http://www.w3.org/2000/svg">
<g clip-path="url(#clip0_1_763)">
<path d="M23.8216 15.7032C23.8945 15.6152 23.9469 15.5122 23.9752 15.4016C24.0035 15.2909 24.0069 15.1753 23.9852 15.0632C23.8808 14.5143 23.6105 14.0105 23.2108 13.62C22.9497 13.3585 22.6393 13.1513 22.2976 13.0106C21.9558 12.8698 21.5896 12.7982 21.22 12.8H21.1776C21.2315 12.5266 21.2273 12.245 21.1653 11.9733C21.1033 11.7017 20.9848 11.4461 20.8176 11.2232L18.3556 7.9404C18.5993 7.86479 18.8126 7.71346 18.9644 7.50838C19.1163 7.30331 19.1988 7.05517 19.2 6.8V5.6C19.2 5.28174 19.0736 4.97652 18.8485 4.75147C18.6235 4.52643 18.3183 4.4 18 4.4H15.3776C15.2448 4.1706 15.0569 3.97788 14.831 3.83924C14.6051 3.7006 14.3482 3.6204 14.0835 3.60588C13.8188 3.59136 13.5547 3.64298 13.315 3.75607C13.0752 3.86917 12.8674 4.04018 12.7103 4.25368C12.5532 4.46717 12.4517 4.71643 12.415 4.97896C12.3783 5.24148 12.4076 5.50901 12.5002 5.7574C12.5927 6.00579 12.7457 6.22721 12.9453 6.40169C13.1448 6.57617 13.3847 6.69821 13.6432 6.7568C13.7136 7.06173 13.8718 7.33933 14.0983 7.55525C14.3248 7.77117 14.6097 7.91593 14.9176 7.9716L16.1408 11.0288C16.3608 11.5788 16.4426 12.1744 16.3791 12.7634C16.3156 13.3524 16.1087 13.9168 15.7766 14.4073C15.4444 14.8979 14.9971 15.2995 14.4739 15.5772C13.9506 15.8548 13.3672 16 12.7748 16H10.8548C10.4745 15.8835 10.1443 15.6428 9.9168 15.3165C9.68934 14.9902 9.5778 14.5971 9.6 14.2C9.57751 13.7979 9.69215 13.4 9.92518 13.0715C10.1582 12.743 10.4958 12.5033 10.8828 12.3916C11.1851 12.3707 11.4682 12.2362 11.6754 12.0152C11.8827 11.7942 11.9986 11.503 12 11.2V10.8C12 10.4817 11.8736 10.1765 11.6485 9.95147C11.4235 9.72643 11.1183 9.6 10.8 9.6H2.6C2.2287 9.6 1.8726 9.7475 1.61005 10.0101C1.3475 10.2726 1.2 10.6287 1.2 11C1.20146 11.2175 1.25422 11.4316 1.354 11.6248C0.977808 11.6833 0.634814 11.8741 0.38664 12.1628C0.138466 12.4515 0.00137734 12.8193 2.63909e-06 13.2V13.6C-0.000571901 13.916 0.0926754 14.225 0.267925 14.4879C0.443175 14.7508 0.692537 14.9558 0.984403 15.0768L1.15 15.146C0.758069 15.6122 0.507462 16.1806 0.427678 16.7844C0.347894 17.3882 0.442253 18.0023 0.699649 18.5542C0.957046 19.1062 1.36677 19.5732 1.88059 19.9002C2.39441 20.2272 2.99096 20.4006 3.6 20.4C4.23666 20.4022 4.85921 20.2125 5.38654 19.8558C5.91387 19.499 6.32153 18.9918 6.5564 18.4H16.3764C16.8562 18.3995 17.3199 18.2269 17.6832 17.9136C17.8609 18.6778 18.3132 19.35 18.954 19.8026C19.5949 20.2552 20.3796 20.4566 21.1592 20.3685C21.9388 20.2804 22.6589 19.909 23.1826 19.3249C23.7064 18.7407 23.9972 17.9845 24 17.2C24.0004 16.726 23.8945 16.258 23.69 15.8304C23.7386 15.7931 23.7827 15.7505 23.8216 15.7032ZM22.6484 14.1904C22.9301 14.4623 23.1201 14.8152 23.192 15.2H19.6912L20.8344 13.6H21.22C21.4853 13.5989 21.7483 13.6505 21.9935 13.7518C22.2387 13.8532 22.4613 14.0023 22.6484 14.1904ZM13.2 5.2C13.2 5.04178 13.2469 4.88711 13.3348 4.75555C13.4227 4.62399 13.5477 4.52145 13.6939 4.4609C13.84 4.40035 14.0009 4.38451 14.1561 4.41537C14.3113 4.44624 14.4538 4.52243 14.5657 4.63432C14.6776 4.7462 14.7538 4.88875 14.7846 5.04393C14.8155 5.19911 14.7997 5.35997 14.7391 5.50615C14.6786 5.65233 14.576 5.77727 14.4445 5.86518C14.3129 5.95308 14.1582 6 14 6C13.7878 6 13.5843 5.91572 13.4343 5.76569C13.2843 5.61566 13.2 5.41218 13.2 5.2ZM14.4688 6.722C14.7952 6.62244 15.0812 6.42094 15.2847 6.14705C15.4883 5.87316 15.5988 5.54126 15.6 5.2H18C18.1061 5.2 18.2078 5.24214 18.2828 5.31716C18.3579 5.39217 18.4 5.49392 18.4 5.6V6.8C18.4 6.90609 18.3579 7.00783 18.2828 7.08285C18.2078 7.15786 18.1061 7.2 18 7.2H15.2C15.0449 7.19978 14.8932 7.15448 14.7634 7.06962C14.6336 6.98475 14.5312 6.86398 14.4688 6.722ZM2.6 10.4H10.8C10.9061 10.4 11.0078 10.4421 11.0828 10.5172C11.1579 10.5922 11.2 10.6939 11.2 10.8V11.2C11.2 11.3061 11.1579 11.4078 11.0828 11.4828C11.0078 11.5579 10.9061 11.6 10.8 11.6H2.6C2.44087 11.6 2.28826 11.5368 2.17574 11.4243C2.06322 11.3117 2 11.1591 2 11C2 10.8409 2.06322 10.6883 2.17574 10.5757C2.28826 10.4632 2.44087 10.4 2.6 10.4ZM0.800003 13.6V13.2C0.800003 12.9878 0.884288 12.7843 1.03432 12.6343C1.18435 12.4843 1.38783 12.4 1.6 12.4H9.44C9.0102 12.8995 8.78201 13.5413 8.8 14.2C8.7817 14.8588 9.00992 15.5007 9.44 16H5.28L1.292 14.3388C1.14622 14.278 1.0217 14.1754 0.934141 14.0439C0.846584 13.9124 0.799911 13.758 0.800003 13.6ZM3.6 19.6C2.96368 19.5994 2.3536 19.3463 1.90365 18.8964C1.4537 18.4464 1.20064 17.8363 1.2 17.2C1.1992 16.8773 1.26407 16.5579 1.39067 16.2611C1.51727 15.9643 1.70295 15.6963 1.9364 15.4736L3.4872 16.12C3.24099 16.2361 3.04171 16.4327 2.92221 16.6773C2.80272 16.9219 2.77016 17.1999 2.82989 17.4655C2.88963 17.7311 3.03809 17.9684 3.25081 18.1383C3.46352 18.3082 3.72778 18.4005 4 18.4H5.6724C5.46409 18.7655 5.16248 19.0692 4.79838 19.2801C4.43428 19.4909 4.02074 19.6013 3.6 19.6ZM16.3764 17.6H4C3.89392 17.6 3.79217 17.5579 3.71716 17.4828C3.64215 17.4078 3.6 17.3061 3.6 17.2C3.6 17.0939 3.64215 16.9922 3.71716 16.9172C3.79217 16.8421 3.89392 16.8 4 16.8H12.7748C13.4979 16.8 14.2101 16.6228 14.8489 16.2839C15.4876 15.9449 16.0336 15.4546 16.4391 14.8558C16.8445 14.257 17.097 13.568 17.1745 12.849C17.252 12.13 17.1521 11.403 16.8836 10.7316L15.7908 8H17.4L20.1772 11.7032C20.3308 11.9068 20.4152 12.1543 20.4182 12.4093C20.4211 12.6644 20.3424 12.9137 20.1936 13.1208L17.3536 17.0976C17.2423 17.2529 17.0956 17.3794 16.9257 17.4668C16.7557 17.5541 16.5675 17.5998 16.3764 17.6ZM20.8 19.6C20.1637 19.5994 19.5536 19.3463 19.1036 18.8964C18.6537 18.4464 18.4006 17.8363 18.4 17.2C18.4 17.128 18.4076 17.058 18.4144 16.988L19.12 16H22.8704C23.0857 16.3633 23.1995 16.7777 23.2 17.2C23.1994 17.8363 22.9463 18.4464 22.4964 18.8964C22.0464 19.3463 21.4363 19.5994 20.8 19.6Z" fill="white"/>
</g>
<defs>
<clipPath id="clip0_1_763">
<rect width="24" height="24" fill="white"/>
</clipPath>
</defs>
</svg>
