<svg width="24" height="24" viewBox="0 0 24 24" fill="none" xmlns="http://www.w3.org/2000/svg">
<g clip-path="url(#clip0_1_746)">
<path d="M13.9817 23.6571C13.4361 23.6571 12.9129 23.4404 12.5271 23.0546C12.1413 22.6688 11.9246 22.1456 11.9246 21.6V17.1017C11.9246 17.0108 11.9607 16.9236 12.025 16.8593C12.0893 16.795 12.1765 16.7589 12.2674 16.7589C12.3583 16.7589 12.4456 16.795 12.5099 16.8593C12.5742 16.9236 12.6103 17.0108 12.6103 17.1017V21.6C12.6103 21.9637 12.7548 22.3125 13.012 22.5697C13.2692 22.8269 13.618 22.9714 13.9817 22.9714C14.3454 22.9714 14.6943 22.8269 14.9515 22.5697C15.2086 22.3125 15.3531 21.9637 15.3531 21.6V17.184C15.3531 17.0931 15.3893 17.0059 15.4536 16.9416C15.5179 16.8773 15.6051 16.8411 15.696 16.8411C15.7869 16.8411 15.8741 16.8773 15.9384 16.9416C16.0027 17.0059 16.0388 17.0931 16.0388 17.184V21.6C16.0388 22.1456 15.8221 22.6688 15.4363 23.0546C15.0505 23.4404 14.5273 23.6571 13.9817 23.6571Z" fill="white"/>
<path d="M16.6594 17.8286C16.3004 17.7881 15.9519 17.6823 15.6309 17.5166C15.0884 17.2417 14.496 17.0796 13.8892 17.04C13.2824 17.0796 12.6899 17.2417 12.1474 17.5166C11.5817 17.7566 11.0949 17.9657 10.7143 17.7154C10.3337 17.4651 10.3372 17.0297 10.3372 16.6869C10.3372 14.7806 12.0309 13.0423 13.8892 13.0423C15.7474 13.0423 17.4412 14.7806 17.4412 16.6869C17.4412 17.0297 17.4 17.4823 17.064 17.7154C16.9433 17.7923 16.8025 17.8317 16.6594 17.8286ZM13.8823 13.7486C12.384 13.7486 11.016 15.1577 11.016 16.7074C11.016 17.0777 11.088 17.1531 11.088 17.1531C11.3623 17.1119 11.6277 17.025 11.8732 16.896C12.4992 16.5827 13.1832 16.4018 13.8823 16.3646C14.5814 16.4018 15.2654 16.5827 15.8914 16.896C16.1382 17.0271 16.4064 17.113 16.6834 17.1497C16.7424 17.0102 16.7648 16.858 16.7486 16.7074C16.7486 15.1577 15.3806 13.7486 13.8823 13.7486Z" fill="white"/>
<path d="M13.8823 6.70628C13.253 6.70628 12.6378 6.51968 12.1146 6.17006C11.5914 5.82045 11.1836 5.32354 10.9428 4.74216C10.7019 4.16077 10.6389 3.52104 10.7617 2.90384C10.8845 2.28665 11.1875 1.71972 11.6325 1.27475C12.0774 0.829783 12.6444 0.526754 13.2616 0.403987C13.8787 0.28122 14.5185 0.344228 15.0999 0.585045C15.6812 0.825861 16.1782 1.23367 16.5278 1.7569C16.8774 2.28013 17.064 2.89528 17.064 3.52457C17.0631 4.36813 16.7276 5.17688 16.1311 5.77338C15.5346 6.36987 14.7258 6.70537 13.8823 6.70628ZM13.8823 1.02857C13.3886 1.02857 12.906 1.17495 12.4956 1.44922C12.0851 1.72348 11.7652 2.1133 11.5763 2.56939C11.3874 3.02547 11.3379 3.52733 11.4342 4.01151C11.5305 4.49569 11.7683 4.94043 12.1173 5.2895C12.4664 5.63858 12.9112 5.8763 13.3953 5.97261C13.8795 6.06891 14.3814 6.01948 14.8375 5.83057C15.2935 5.64165 15.6834 5.32173 15.9576 4.91127C16.2319 4.5008 16.3783 4.01823 16.3783 3.52457C16.3774 2.86286 16.1141 2.22852 15.6462 1.76063C15.1783 1.29273 14.544 1.02947 13.8823 1.02857Z" fill="white"/>
<path d="M13.8823 5.01942C13.5867 5.01942 13.2976 4.93175 13.0518 4.7675C12.806 4.60324 12.6144 4.36977 12.5012 4.09662C12.3881 3.82347 12.3585 3.52291 12.4162 3.23293C12.4739 2.94296 12.6162 2.6766 12.8253 2.46754C13.0343 2.25848 13.3007 2.11611 13.5907 2.05843C13.8807 2.00075 14.1812 2.03036 14.4544 2.1435C14.7275 2.25664 14.961 2.44824 15.1252 2.69407C15.2895 2.9399 15.3772 3.22891 15.3772 3.52457C15.3772 3.92103 15.2197 4.30125 14.9393 4.58159C14.659 4.86193 14.2788 5.01942 13.8823 5.01942ZM13.8823 2.71542C13.7223 2.71542 13.5658 2.76288 13.4328 2.85179C13.2997 2.9407 13.196 3.06707 13.1348 3.21492C13.0735 3.36277 13.0575 3.52546 13.0887 3.68242C13.1199 3.83938 13.197 3.98356 13.3102 4.09672C13.4233 4.20988 13.5675 4.28694 13.7245 4.31816C13.8814 4.34938 14.0441 4.33336 14.192 4.27212C14.3398 4.21088 14.4662 4.10717 14.5551 3.9741C14.644 3.84104 14.6915 3.6846 14.6915 3.52457C14.6915 3.30997 14.6062 3.10416 14.4545 2.95242C14.3027 2.80067 14.0969 2.71542 13.8823 2.71542Z" fill="white"/>
<path d="M11.544 5.48572C9.82968 5.48572 8.18054 5.33486 8.18054 3.53143C8.18054 1.72801 9.8434 1.57715 11.544 1.57715C11.6349 1.57715 11.7221 1.61327 11.7864 1.67757C11.8507 1.74187 11.8868 1.82907 11.8868 1.92001C11.8868 2.01094 11.8507 2.09814 11.7864 2.16244C11.7221 2.22674 11.6349 2.26286 11.544 2.26286C9.2674 2.26286 8.86626 2.67086 8.86626 3.53143C8.86626 4.39201 9.25711 4.80001 11.544 4.80001C11.6349 4.80001 11.7221 4.83613 11.7864 4.90043C11.8507 4.96472 11.8868 5.05193 11.8868 5.14286C11.8868 5.23379 11.8507 5.321 11.7864 5.3853C11.7221 5.4496 11.6349 5.48572 11.544 5.48572Z" fill="white"/>
<path d="M15.6994 19.5429C15.6167 19.5438 15.5365 19.5148 15.4735 19.4613C15.4105 19.4077 15.369 19.3332 15.3566 19.2514C15.3493 19.2063 15.3511 19.1602 15.3619 19.1159C15.3726 19.0715 15.3922 19.0297 15.4193 18.993C15.4465 18.9562 15.4807 18.9253 15.5199 18.902C15.5592 18.8786 15.6027 18.8634 15.648 18.8571C16.6491 18.7029 18.7646 18.1234 18.9051 17.3109C19.9097 11.3931 15.8434 5.57828 15.8194 5.52C15.7931 5.48315 15.7744 5.44145 15.7643 5.39731C15.7541 5.35318 15.7529 5.30748 15.7605 5.26285C15.7682 5.21822 15.7846 5.17555 15.8088 5.1373C15.8331 5.09905 15.8646 5.06598 15.9017 5.04C15.9759 4.98794 16.0677 4.96738 16.157 4.9828C16.2463 4.99822 16.3258 5.04837 16.3783 5.12228C16.5531 5.36914 20.6503 11.2286 19.5977 17.4274C19.3371 18.9463 16.1348 19.4846 15.768 19.536L15.6994 19.5429Z" fill="white"/>
<path d="M12.0652 19.5429H12C11.6366 19.488 8.4309 18.9531 8.17033 17.4343C7.11775 11.2354 11.2149 5.37601 11.3898 5.12915C11.4422 5.05523 11.5218 5.00508 11.6111 4.98967C11.7004 4.97425 11.7921 4.99481 11.8663 5.04686C11.9034 5.07285 11.935 5.10592 11.9592 5.14417C11.9834 5.18242 11.9998 5.22509 12.0075 5.26972C12.0151 5.31434 12.0139 5.36004 12.0038 5.40418C11.9937 5.44832 11.9749 5.49001 11.9486 5.52686C11.9075 5.58515 7.83433 11.4069 8.8629 17.3177C9.00347 18.1337 11.1189 18.7097 12.12 18.864C12.1646 18.8707 12.2075 18.8861 12.2461 18.9094C12.2847 18.9327 12.3184 18.9634 12.3451 18.9997C12.3719 19.036 12.3912 19.0772 12.402 19.121C12.4128 19.1648 12.4149 19.2103 12.408 19.2549C12.3949 19.336 12.353 19.4097 12.2901 19.4626C12.2272 19.5154 12.1474 19.5439 12.0652 19.5429Z" fill="white"/>
<path d="M16.2205 5.48571C16.1296 5.48571 16.0424 5.44958 15.9781 5.38529C15.9138 5.32099 15.8777 5.23378 15.8777 5.14285C15.8777 5.05192 15.9138 4.96471 15.9781 4.90041C16.0424 4.83612 16.1296 4.79999 16.2205 4.79999C17.592 4.79999 18.3325 4.64914 18.6583 4.29942C18.7901 4.14806 18.9522 4.02595 19.1341 3.94093C19.3159 3.85591 19.5135 3.80985 19.7143 3.80571H22.1657C22.2384 3.80571 22.3082 3.77681 22.3596 3.72537C22.4111 3.67393 22.44 3.60417 22.44 3.53142C22.44 3.45868 22.4111 3.38891 22.3596 3.33747C22.3082 3.28603 22.2384 3.25714 22.1657 3.25714H19.7143C19.512 3.25043 19.3134 3.20117 19.1314 3.11256C18.9495 3.02394 18.7882 2.89797 18.6583 2.74285C18.3154 2.39999 17.6023 2.24228 16.2205 2.24228C16.1296 2.24228 16.0424 2.20616 15.9781 2.14186C15.9138 2.07756 15.8777 1.99035 15.8777 1.89942C15.8777 1.80849 15.9138 1.72128 15.9781 1.65698C16.0424 1.59269 16.1296 1.55656 16.2205 1.55656C17.592 1.55656 18.6034 1.67999 19.1623 2.27656C19.2307 2.35746 19.315 2.42352 19.4099 2.47068C19.5049 2.51785 19.6084 2.54513 19.7143 2.55085H22.1657C22.4203 2.55085 22.6645 2.65199 22.8445 2.83203C23.0245 3.01206 23.1257 3.25624 23.1257 3.51085C23.1257 3.76546 23.0245 4.00964 22.8445 4.18967C22.6645 4.36971 22.4203 4.47085 22.1657 4.47085H19.7143C19.6084 4.47657 19.5049 4.50385 19.4099 4.55102C19.315 4.59818 19.2307 4.66424 19.1623 4.74514C18.6034 5.35542 17.5817 5.48571 16.2205 5.48571Z" fill="white"/>
<path d="M11.5441 5.48572C10.1726 5.48572 9.14406 5.36229 8.60234 4.76572C8.53425 4.68523 8.45052 4.61941 8.35622 4.57226C8.26192 4.52511 8.15902 4.49761 8.05377 4.49143H5.59892C5.34431 4.49143 5.10013 4.39029 4.92009 4.21026C4.74006 4.03022 4.63892 3.78604 4.63892 3.53143C4.63892 3.27683 4.74006 3.03265 4.92009 2.85261C5.10013 2.67258 5.34431 2.57143 5.59892 2.57143H8.05377C8.15902 2.56525 8.26192 2.53776 8.35622 2.49061C8.45052 2.44346 8.53425 2.37764 8.60234 2.29715C9.1612 1.70058 10.1829 1.57715 11.5441 1.57715C11.635 1.57715 11.7222 1.61327 11.7865 1.67757C11.8508 1.74187 11.8869 1.82907 11.8869 1.92001C11.8869 2.01094 11.8508 2.09814 11.7865 2.16244C11.7222 2.22674 11.635 2.26286 11.5441 2.26286C10.1726 2.26286 9.43206 2.41372 9.10634 2.76343C8.97485 2.91437 8.81333 3.03623 8.6321 3.12124C8.45087 3.20625 8.2539 3.25254 8.05377 3.25715H5.59892C5.52617 3.25715 5.45641 3.28605 5.40497 3.33749C5.35353 3.38892 5.32463 3.45869 5.32463 3.53143C5.32463 3.60418 5.35353 3.67394 5.40497 3.72538C5.45641 3.77682 5.52617 3.80572 5.59892 3.80572H8.05377C8.2539 3.81033 8.45087 3.85662 8.6321 3.94163C8.81333 4.02664 8.97485 4.1485 9.10634 4.29943C9.4492 4.64229 10.1623 4.80001 11.5441 4.80001C11.635 4.80001 11.7222 4.83613 11.7865 4.90043C11.8508 4.96472 11.8869 5.05193 11.8869 5.14286C11.8869 5.23379 11.8508 5.321 11.7865 5.3853C11.7222 5.4496 11.635 5.48572 11.5441 5.48572Z" fill="white"/>
<path d="M4.00801 9.17828H2.66744C2.57651 9.17828 2.4893 9.14216 2.42501 9.07786C2.36071 9.01356 2.32458 8.92635 2.32458 8.83542V5.91771C2.32458 5.82678 2.36071 5.73957 2.42501 5.67527C2.4893 5.61097 2.57651 5.57485 2.66744 5.57485H4.00801C4.25123 5.56424 4.49408 5.60298 4.72192 5.68874C4.94976 5.7745 5.15788 5.9055 5.33374 6.07385C5.5096 6.2422 5.64955 6.44441 5.74516 6.6683C5.84077 6.89219 5.89006 7.13312 5.89006 7.37656C5.89006 7.62001 5.84077 7.86094 5.74516 8.08483C5.64955 8.30872 5.5096 8.51093 5.33374 8.67928C5.15788 8.84763 4.94976 8.97863 4.72192 9.06439C4.49408 9.15015 4.25123 9.18889 4.00801 9.17828ZM3.0103 8.49256H4.00801C4.15977 8.50098 4.31165 8.47835 4.45437 8.42607C4.59708 8.37379 4.72764 8.29295 4.83805 8.18849C4.94846 8.08403 5.0364 7.95816 5.09651 7.81855C5.15661 7.67895 5.18761 7.52856 5.18761 7.37656C5.18761 7.22457 5.15661 7.07418 5.09651 6.93457C5.0364 6.79497 4.94846 6.66909 4.83805 6.56464C4.72764 6.46018 4.59708 6.37934 4.45437 6.32706C4.31165 6.27477 4.15977 6.25215 4.00801 6.26056H3.0103V8.49256Z" fill="white"/>
<path d="M8.58854 13.176C8.55777 13.1794 8.52673 13.1794 8.49597 13.176L8.15311 13.08C7.60597 12.9269 7.14132 12.5642 6.86014 12.0705C6.57895 11.5768 6.50394 10.9921 6.65139 10.4434L6.88454 9.576C6.94441 9.35937 6.95373 9.13189 6.91177 8.91109C6.86981 8.69029 6.77769 8.48209 6.64253 8.30253C6.50736 8.12297 6.33275 7.97685 6.13218 7.87546C5.9316 7.77406 5.71042 7.72009 5.48568 7.71771C5.39475 7.71771 5.30754 7.68159 5.24324 7.61729C5.17894 7.55299 5.14282 7.46579 5.14282 7.37485C5.14282 7.28392 5.17894 7.19672 5.24324 7.13242C5.30754 7.06812 5.39475 7.032 5.48568 7.032C5.81443 7.03471 6.13819 7.11278 6.43204 7.26022C6.72589 7.40766 6.98201 7.62054 7.1807 7.88248C7.37939 8.14441 7.51535 8.44843 7.57812 8.77115C7.6409 9.09386 7.62883 9.42668 7.54282 9.744L7.30968 10.6286C7.20892 11.0027 7.2606 11.4016 7.45341 11.7377C7.64621 12.0738 7.9644 12.3198 8.33825 12.4217L8.68111 12.5177C8.77204 12.53 8.85437 12.5779 8.90999 12.6509C8.96561 12.7238 8.98995 12.8159 8.97768 12.9069C8.9654 12.9978 8.91751 13.0801 8.84453 13.1357C8.77155 13.1914 8.67947 13.2157 8.58854 13.2034V13.176Z" fill="white"/>
<path d="M2.66741 6.94629H1.21712C1.12619 6.94629 1.03899 6.91017 0.974688 6.84587C0.91039 6.78157 0.874268 6.69436 0.874268 6.60343C0.874268 6.5125 0.91039 6.42529 0.974688 6.36099C1.03899 6.2967 1.12619 6.26057 1.21712 6.26057H2.66741C2.75834 6.26057 2.84555 6.2967 2.90985 6.36099C2.97415 6.42529 3.01027 6.5125 3.01027 6.60343C3.01027 6.69436 2.97415 6.78157 2.90985 6.84587C2.84555 6.91017 2.75834 6.94629 2.66741 6.94629Z" fill="white"/>
<path d="M2.66741 8.49257H1.21712C1.12619 8.49257 1.03899 8.45645 0.974688 8.39215C0.91039 8.32785 0.874268 8.24064 0.874268 8.14971C0.874268 8.05878 0.91039 7.97157 0.974688 7.90727C1.03899 7.84298 1.12619 7.80685 1.21712 7.80685H2.66741C2.75834 7.80685 2.84555 7.84298 2.90985 7.90727C2.97415 7.97157 3.01027 8.05878 3.01027 8.14971C3.01027 8.24064 2.97415 8.32785 2.90985 8.39215C2.84555 8.45645 2.75834 8.49257 2.66741 8.49257Z" fill="white"/>
<path d="M13.4022 11.9417C13.3296 11.942 13.2588 11.9192 13.1999 11.8766C13.1637 11.8498 13.133 11.8162 13.1098 11.7775C13.0865 11.7389 13.0711 11.6961 13.0644 11.6515C13.0577 11.6069 13.0599 11.5614 13.0708 11.5177C13.0817 11.474 13.1011 11.4328 13.1279 11.3966L13.8479 10.416L13.2445 10.104C13.1994 10.0808 13.16 10.0478 13.1292 10.0075C13.0983 9.96715 13.0768 9.92049 13.0662 9.87085C13.056 9.8213 13.0568 9.77008 13.0686 9.72088C13.0805 9.67168 13.1031 9.62571 13.1348 9.58628L14.0948 8.4C14.1232 8.36488 14.1582 8.33569 14.1978 8.3141C14.2375 8.29251 14.281 8.27894 14.3259 8.27416C14.3708 8.26939 14.4161 8.2735 14.4594 8.28626C14.5028 8.29903 14.5431 8.3202 14.5782 8.34857C14.6134 8.37693 14.6425 8.41194 14.6641 8.45158C14.6857 8.49123 14.6993 8.53474 14.7041 8.57963C14.7088 8.62452 14.7047 8.66991 14.692 8.71321C14.6792 8.75651 14.658 8.79688 14.6297 8.832L13.9439 9.68914L14.5302 9.99085C14.5739 10.0138 14.6122 10.0458 14.6424 10.0849C14.6726 10.1239 14.6939 10.1691 14.7051 10.2171C14.7163 10.2654 14.7169 10.3156 14.7068 10.3641C14.6967 10.4126 14.6763 10.4584 14.6468 10.4983L13.6902 11.8011C13.6573 11.8463 13.6139 11.8826 13.5637 11.9071C13.5135 11.9316 13.4581 11.9435 13.4022 11.9417Z" fill="white"/>
</g>
<defs>
<clipPath id="clip0_1_746">
<rect width="24" height="24" fill="white"/>
</clipPath>
</defs>
</svg>
